Natural Born Killers (1994) Director's Cut

Director: Oliver Stone

Natural Born Killers is a 1994 American crime film directed by Oliver Stone about a pair of mass murderers and the media coverage given to them. It stars Woody Harrelson and Juliette Lewis, along with Rodney Dangerfield, Robert Downey, Jr., Tom Sizemore, and Tommy Lee Jones.

The film is based on a screenplay by Quentin Tarantino that was heavily revised by Stone with writer Dave Veloz and associate producer Richard Rutowski. Notorious for its violent content, the film was named the 8th most controversial movie of all time by Entertainment Weekly.

Natural Born Killers was promoted with the tagline, A bold new film that takes a look at a country seduced by fame, obsessed by crime and consumed by the media. It was released theatrically in the United States on August 26, 1994.

Natural Born Killers was based upon a screenplay written by Quentin Tarantino, in which a married couple suddenly decides to go on a killing spree. Tarantino had sold an option for his script to producers Jane Hamsher and Don Murphy for $10,000 after he had tried, and failed, to direct it himself for $500,000. Hamsher and Murphy subsequently sold the screenplay to Warner Bros. Around the same time, Oliver Stone was made aware of the script. He was keen to find something more straightforward than his previous production, Heaven & Earth; a difficult shoot which had left him exhausted, and he felt that Natural Born Killers could be what he was looking for.

Director Oliver Stone, associate producer Richard Rutowski, and writer David Veloz rewrote the script, keeping much of the dialogue but changing the focus of the film from journalist Wayne Gale (Robert Downey, Jr.) to Mickey and Mallory. Indeed, the script was changed so much that as per WGA rules, Tarantino was credited for the film's story only. In a 1993 interview, Tarantino stated that he no longer held any animosity towards Stone, and that he wished the film well.

Media Info:
General
Complete name                    : J:\Seeding\Natural Born Killers (1994)[DVDRip][big_dad_eâ„¢]\Natural Born Killers (1994)[DVDRip][big_dad_eâ„¢].avi
Format                           : AVI
Format/Info                      : Audio Video Interleave
Format profile                   : OpenDML
File size                        : 2.49 GiB
Duration                         : 2h 1mn
Overall bit rate                 : 2 932 Kbps
Writing application              : Lavf51.12.1

Video
ID                               : 0
Format                           : MPEG-4 Visual
Format profile                   : Simple@L1
Format settings, BVOP            : No
Format settings, QPel            : No
Format settings, GMC             : No warppoints
Format settings, Matrix          : Default (H.263)
Codec ID                         : DX50
Codec ID/Hint                    : DivX 5
Duration                         : 2h 1mn
Bit rate                         : 2 600 Kbps
Width                            : 720 pixels
Height                           : 540 pixels
Display aspect ratio             : 4:3
Frame rate                       : 23.976 fps
Color space                      : YUV
Chroma subsampling               : 4:2:0
Bit depth                        : 8 bits
Scan type                        : Progressive
Bits/(Pixel*Frame)               : 0.279
Stream size                      : 2.21 GiB (89%)
Writing library                  : Lavc51.40.4

Audio
ID                               : 1
Format                           : MPEG Audio
Format version                   : Version 1
Format profile                   : Layer 3
Mode                             : Joint stereo
Codec ID                         : 55
Codec ID/Hint                    : MP3
Duration                         : 2h 1mn
Bit rate mode                    : Constant
Bit rate                         : 320 Kbps
Channel(s)                       : 2 channels
Sampling rate                    : 44.1 KHz
Stream size                      : 278 MiB (11%)
Alignment                        : Aligned on interleaves
Interleave, duration             : 26 ms (0.63 video frame)
Writing library                  : LAME3.97

File Scan:
Malwarebytes' Anti-Malware 1.46
www.malwarebytes.org

Database version: 5126

Windows 5.1.2600 Service Pack 3
Internet Explorer 8.0.6001.18702

11/16/2010 5:33:13 PM
mbam-log-2010-11-16 (17-33-13).txt

Scan type: Quick scan
Objects scanned: 6
Time elapsed: 10 second(s)

Memory Processes Infected: 0
Memory Modules Infected: 0
Registry Keys Infected: 0
Registry Values Infected: 0
Registry Data Items Infected: 0
Folders Infected: 0
Files Infected: 0

Memory Processes Infected:
(No malicious items detected)

Memory Modules Infected:
(No malicious items detected)

Registry Keys Infected:
(No malicious items detected)

Registry Values Infected:
(No malicious items detected)

Registry Data Items Infected:
(No malicious items detected)

Folders Infected:
(No malicious items detected)

Files Infected:
(No malicious items detected)

When using TPB please read these important notes:
  
01- Anti-malware apps may warn about keygens, patches, cracks, etc., because of 
    their capabilities, (generating codes, etc.). Sometimes they're added to 
    the virus/spyware database and will be detected as malware. If you don't trust
    the keygens, patches, cracks, etc., don't use them. 
    
02- Before running .exe-files, keygens, patches, cracks, etc., always check first 
    if they can be unpacked. Often some third party added a virus to the 
    original file, repacked it and uploaded it again.

03- Letting anti-malware apps send scan results to their companies can cause
    keygens, patches, cracks, etc., to be added to their virus-database.

04- Firewalls which are set to automatically determine connections will allow 
    apps & malware!. Avoid this by manually configuring your firewall.

05- Usually (new) torrents with many downloads and seeders in a brief period is
    suspicious! Torrents with the Skull & Crossbones icon are trusted.

06- Some people use multiple accounts and post fake comments 
    and/or files trying to spread confusion. They seldom seriously
    comment or have any torrents, or a just a few to look passable.

07- Clicking on unknown links can cause malware to be installed on your machine.
  
08- In general often there are more fake and negative comments than reliable and
    positive comments.

09- In some countries uploading/downloading copyright protected material is 
    forbidden, but showing some appreciation to reliable up-loaders is not.

10- Posting fake and negative comments or fake/infected uploads on TPB can result
    in getting banned from TPB!

Requests?  Find me on SuprBay.
 

For reporting bad or suspicious torrents: 
http://forum.suprbay.org/forumdisplay.php?fid=29

For more of my torrents:
https://thepiratebay.org/user/big_dad_e/  (Secured)

All torrents scanned with:
Norton Anti-virus
Malwarebytes' Anti-malware 
http://www.pirate-party.us/

ALWAYS SEED & THANKS SEEDERS!